<svg width="16" height="16" viewBox="0 0 16 16" fill="none" xmlns="http://www.w3.org/2000/svg">
<path d="M8.02533 2.25098C8.03218 2.25121 8.039 2.25153 8.04584 2.25195C8.0845 2.25429 8.12227 2.2596 8.15912 2.26758C8.1924 2.2748 8.22455 2.28607 8.25678 2.29785C8.26926 2.30242 8.2827 2.30437 8.29487 2.30957C8.31395 2.31772 8.33106 2.33004 8.34955 2.33984C8.37335 2.35248 8.39767 2.36387 8.41987 2.37891C8.45869 2.40523 8.49583 2.43534 8.53022 2.46973L12.5302 6.46973C12.8231 6.76261 12.8231 7.23739 12.5302 7.53027C12.2373 7.82316 11.7626 7.82314 11.4697 7.53027L8.74994 4.81055V13C8.74994 13.4142 8.41413 13.75 7.99994 13.75C7.58573 13.75 7.24994 13.4142 7.24994 13V4.81055L4.53022 7.53027C4.23733 7.82316 3.76257 7.82314 3.46967 7.53027C3.17678 7.23738 3.17678 6.76262 3.46967 6.46973L7.46967 2.46973L7.52631 2.41797C7.53651 2.40965 7.54802 2.40321 7.55854 2.39551C7.57408 2.38414 7.58998 2.37345 7.60639 2.36328C7.63029 2.34849 7.65456 2.3351 7.67963 2.32324C7.69781 2.31463 7.71635 2.30697 7.73529 2.2998C7.76287 2.28942 7.79088 2.28144 7.81928 2.27441C7.83934 2.26944 7.85916 2.26309 7.87983 2.25977C7.89088 2.25799 7.90192 2.25616 7.91303 2.25488C7.94152 2.2516 7.97057 2.25 7.99994 2.25C8.00845 2.25 8.0169 2.2507 8.02533 2.25098Z" fill="white"/>
</svg>
