<svg width="16" height="16" viewBox="0 0 16 16" fill="none" xmlns="http://www.w3.org/2000/svg">
<path d="M8 1C11.8658 1.00009 14.9998 4.13421 15 8C15 11.8659 11.8659 14.9999 8 15C4.13401 15 1 11.866 1 8C1.00018 4.13416 4.13412 1 8 1ZM8 2.5C4.96254 2.5 2.50018 4.96258 2.5 8C2.5 11.0376 4.96243 13.5 8 13.5C11.0375 13.4999 13.5 11.0375 13.5 8C13.4998 4.96264 11.0374 2.50009 8 2.5ZM8 9.5C8.55228 9.5 9 9.94772 9 10.5C9 11.0523 8.55228 11.5 8 11.5C7.44772 11.5 7 11.0523 7 10.5C7 9.94772 7.44772 9.5 8 9.5ZM8 4.25C8.41421 4.25 8.75 4.58579 8.75 5V7.5C8.75 7.91421 8.41421 8.25 8 8.25C7.58579 8.25 7.25 7.91421 7.25 7.5V5C7.25 4.58579 7.58579 4.25 8 4.25Z" fill="black"/>
</svg>
