<svg width="16" height="16" viewBox="0 0 16 16" fill="none" xmlns="http://www.w3.org/2000/svg">
<path d="M8.43262 13.4834C8.84556 13.4513 9.20615 13.7599 9.23828 14.1729C9.27036 14.5858 8.9618 14.9464 8.54883 14.9785C8.36759 14.9926 8.18457 15 8 15C7.81543 15 7.63241 14.9926 7.45117 14.9785C7.0382 14.9464 6.72964 14.5858 6.76172 14.1729C6.79385 13.7599 7.15444 13.4513 7.56738 13.4834C7.70999 13.4945 7.85427 13.5 8 13.5C8.14573 13.5 8.29001 13.4945 8.43262 13.4834ZM2.75977 11.4893C3.07452 11.2202 3.54818 11.2567 3.81738 11.5713C4.00475 11.7905 4.20954 11.9953 4.42871 12.1826C4.74329 12.4518 4.77982 12.9255 4.51074 13.2402C4.24155 13.5548 3.76789 13.5913 3.45312 13.3223C3.17492 13.0844 2.91561 12.8251 2.67773 12.5469C2.40865 12.2321 2.44515 11.7585 2.75977 11.4893ZM12.1826 11.5713C12.4518 11.2567 12.9255 11.2202 13.2402 11.4893C13.5548 11.7585 13.5913 12.2321 13.3223 12.5469C13.0844 12.8251 12.8251 13.0844 12.5469 13.3223C12.2321 13.5914 11.7585 13.5548 11.4893 13.2402C11.2202 12.9255 11.2567 12.4518 11.5713 12.1826C11.7905 11.9953 11.9953 11.7905 12.1826 11.5713ZM8 3.75C8.41421 3.75 8.75 4.08579 8.75 4.5V7.68945L10.5303 9.46973C10.8232 9.76262 10.8232 10.2374 10.5303 10.5303C10.2374 10.8232 9.76262 10.8232 9.46973 10.5303L7.46973 8.53027C7.32907 8.38962 7.25 8.19891 7.25 8V4.5C7.25 4.08579 7.58579 3.75 8 3.75ZM1.82715 6.76172C2.24007 6.79385 2.54868 7.15444 2.5166 7.56738C2.50553 7.70999 2.5 7.85427 2.5 8C2.5 8.14573 2.50553 8.29001 2.5166 8.43262C2.54868 8.84556 2.24007 9.20615 1.82715 9.23828C1.41418 9.27036 1.05357 8.9618 1.02148 8.54883C1.00741 8.36759 1 8.18457 1 8C1 7.81543 1.00741 7.63241 1.02148 7.45117C1.05357 7.0382 1.41418 6.72964 1.82715 6.76172ZM14.1729 6.76172C14.5858 6.72964 14.9464 7.0382 14.9785 7.45117C14.9926 7.63241 15 7.81543 15 8C15 8.18457 14.9926 8.36759 14.9785 8.54883C14.9464 8.9618 14.5858 9.27036 14.1729 9.23828C13.7599 9.20615 13.4513 8.84556 13.4834 8.43262C13.4945 8.29001 13.5 8.14573 13.5 8C13.5 7.85427 13.4945 7.70999 13.4834 7.56738C13.4513 7.15444 13.7599 6.79385 14.1729 6.76172ZM3.45312 2.67773C3.76789 2.40865 4.24155 2.44515 4.51074 2.75977C4.77982 3.07452 4.74329 3.54818 4.42871 3.81738C4.20954 4.00475 4.00475 4.20954 3.81738 4.42871C3.54818 4.74329 3.07452 4.77982 2.75977 4.51074C2.44515 4.24155 2.40865 3.76789 2.67773 3.45312C2.91561 3.17492 3.17492 2.91561 3.45312 2.67773ZM11.4893 2.75977C11.7585 2.44515 12.2321 2.40865 12.5469 2.67773C12.8251 2.91561 13.0844 3.17492 13.3223 3.45312C13.5914 3.76789 13.5548 4.24155 13.2402 4.51074C12.9255 4.77982 12.4518 4.74329 12.1826 4.42871C11.9953 4.20954 11.7905 4.00475 11.5713 3.81738C11.2567 3.54818 11.2202 3.07452 11.4893 2.75977ZM8 1C8.18457 1 8.36759 1.00741 8.54883 1.02148C8.9618 1.05357 9.27036 1.41418 9.23828 1.82715C9.20615 2.24007 8.84556 2.54868 8.43262 2.5166C8.29001 2.50553 8.14573 2.5 8 2.5C7.85427 2.5 7.70999 2.50553 7.56738 2.5166C7.15444 2.54868 6.79385 2.24007 6.76172 1.82715C6.72964 1.41418 7.0382 1.05357 7.45117 1.02148C7.63241 1.00741 7.81543 1 8 1Z" fill="black"/>
</svg>
