<svg width="16" height="16" viewBox="0 0 16 16" fill="none" xmlns="http://www.w3.org/2000/svg">
<path d="M10.6513 4.28803C10.9442 3.99514 11.419 3.99514 11.7119 4.28803C12.0048 4.58092 12.0048 5.05568 11.7119 5.34858L9.06049 7.99994L11.7119 10.6513C12.0048 10.9442 12.0048 11.419 11.7119 11.7119C11.419 12.0048 10.9442 12.0048 10.6513 11.7119L7.99994 9.06049L5.34858 11.7119C5.05568 12.0048 4.58092 12.0048 4.28803 11.7119C3.99514 11.419 3.99514 10.9442 4.28803 10.6513L6.9394 7.99994L4.28803 5.34858C3.99514 5.05568 3.99514 4.58092 4.28803 4.28803C4.58092 3.99514 5.05568 3.99514 5.34858 4.28803L7.99994 6.9394L10.6513 4.28803Z" fill="black"/>
</svg>
