<svg width="16" height="16" viewBox="0 0 16 16" fill="none" xmlns="http://www.w3.org/2000/svg">
<path d="M9 5.25C9.9665 5.25 10.75 6.0335 10.75 7V13C10.75 13.9665 9.9665 14.75 9 14.75H3C2.0335 14.75 1.25 13.9665 1.25 13V7C1.25 6.0335 2.0335 5.25 3 5.25H9ZM3 6.75C2.86193 6.75 2.75 6.86193 2.75 7V13C2.75 13.1381 2.86193 13.25 3 13.25H9C9.13807 13.25 9.25 13.1381 9.25 13V7C9.25 6.86193 9.13807 6.75 9 6.75H3ZM13 1.25C13.9665 1.25 14.75 2.0335 14.75 3V9C14.75 9.9665 13.9665 10.75 13 10.75H12.5C12.0858 10.75 11.75 10.4142 11.75 10C11.75 9.58579 12.0858 9.25 12.5 9.25H13C13.1381 9.25 13.25 9.13807 13.25 9V3C13.25 2.86193 13.1381 2.75 13 2.75H7C6.86193 2.75 6.75 2.86193 6.75 3V3.5C6.75 3.91421 6.41421 4.25 6 4.25C5.58579 4.25 5.25 3.91421 5.25 3.5V3C5.25 2.0335 6.0335 1.25 7 1.25H13Z" fill="black"/>
</svg>
