<svg width="16" height="16" viewBox="0 0 16 16" fill="none" xmlns="http://www.w3.org/2000/svg">
<path d="M11 1.75C11.9663 1.75007 12.7498 2.53376 12.75 3.5V6.5C12.7498 6.91396 12.414 7.24993 12 7.25C11.586 7.24993 11.2502 6.91396 11.25 6.5V3.5C11.2498 3.36218 11.1379 3.25007 11 3.25H4.5C4.36208 3.25 4.25025 3.36214 4.25 3.5V12.5C4.25 12.6381 4.36193 12.75 4.5 12.75H7C7.414 12.7501 7.74975 13.086 7.75 13.5C7.75 13.9142 7.41415 14.2499 7 14.25H4.5C3.5335 14.25 2.75 13.4665 2.75 12.5V3.5C2.75025 2.53371 3.53365 1.75 4.5 1.75H11ZM12 8.75C12.4142 8.75002 12.75 9.08582 12.75 9.5V10.75H14C14.4142 10.75 14.75 11.0858 14.75 11.5C14.75 11.9142 14.4142 12.25 14 12.25H12.75V13.5C12.75 13.9142 12.4142 14.25 12 14.25C11.5858 14.25 11.25 13.9142 11.25 13.5V12.25H10C9.58582 12.25 9.25002 11.9142 9.25 11.5C9.25002 11.0858 9.58582 10.75 10 10.75H11.25V9.5C11.25 9.08582 11.5858 8.75002 12 8.75ZM7.5 7.25C7.9142 7.25 8.24998 7.58581 8.25 8C8.25 8.41421 7.91421 8.75 7.5 8.75H6C5.58581 8.74998 5.25 8.4142 5.25 8C5.25002 7.58582 5.58582 7.25002 6 7.25H7.5ZM9.5 4.75C9.9142 4.75 10.25 5.08581 10.25 5.5C10.25 5.91421 9.91421 6.25 9.5 6.25H6C5.58581 6.24998 5.25 5.9142 5.25 5.5C5.25002 5.08582 5.58582 4.75002 6 4.75H9.5Z" fill="black"/>
</svg>
