<svg width="16" height="16" viewBox="0 0 16 16" fill="none" xmlns="http://www.w3.org/2000/svg">
<path d="M1.27686 4.75098C1.68702 4.69333 2.06684 4.9795 2.12451 5.38965L3.09814 12.3213C3.11735 12.4579 3.24375 12.5532 3.38037 12.5342L10.313 11.5605C10.7229 11.5031 11.1019 11.7883 11.1597 12.1982C11.2173 12.6084 10.9312 12.9883 10.521 13.0459L3.58936 14.0195C2.63228 14.154 1.7473 13.4874 1.61279 12.5303L0.63916 5.59863C0.581518 5.18849 0.86673 4.80867 1.27686 4.75098ZM13.5005 2C14.3287 2.00023 15.0005 2.67172 15.0005 3.5V9.5L14.9927 9.65332C14.921 10.3592 14.3596 10.9203 13.6538 10.9922L13.5005 11H5.50049L5.34717 10.9922C4.64119 10.9205 4.08 10.3593 4.0083 9.65332L4.00049 9.5V3.5C4.00049 2.67157 4.67206 2 5.50049 2H13.5005ZM5.50049 9.5H13.5005V3.5H5.50049V9.5ZM9.50049 7.25C9.91451 7.25023 10.2505 7.58593 10.2505 8C10.2505 8.41407 9.91451 8.74977 9.50049 8.75H7.50049C7.08627 8.75 6.75049 8.41421 6.75049 8C6.75049 7.58579 7.08627 7.25 7.50049 7.25H9.50049ZM11.5005 4.75C11.9145 4.75023 12.2505 5.08593 12.2505 5.5C12.2505 5.91407 11.9145 6.24977 11.5005 6.25H7.50049C7.08627 6.25 6.75049 5.91421 6.75049 5.5C6.75049 5.08579 7.08627 4.75 7.50049 4.75H11.5005Z" fill="black"/>
</svg>
