<svg width="16" height="16" viewBox="0 0 16 16" fill="none" xmlns="http://www.w3.org/2000/svg">
<path d="M3 7.75C3.41421 7.75 3.75 8.08579 3.75 8.5V12.25H7.5C7.91421 12.25 8.25 12.5858 8.25 13C8.25 13.4142 7.91421 13.75 7.5 13.75H3C2.58579 13.75 2.25 13.4142 2.25 13V8.5C2.25 8.08579 2.58579 7.75 3 7.75ZM13 2.25C13.4142 2.25 13.75 2.58579 13.75 3V7.5C13.75 7.91421 13.4142 8.25 13 8.25C12.5858 8.25 12.25 7.91421 12.25 7.5V3.75H8.5C8.08579 3.75 7.75 3.41421 7.75 3C7.75 2.58579 8.08579 2.25 8.5 2.25H13Z" fill="black"/>
</svg>
