<svg width="16" height="16" viewBox="0 0 16 16" fill="none" xmlns="http://www.w3.org/2000/svg">
<path d="M5.75 3.75C5.92638 3.75001 6.08678 3.81312 6.21484 3.91504L11.6523 7.36719C11.6571 7.3702 11.6614 7.37385 11.666 7.37695C11.6732 7.38176 11.6804 7.38653 11.6875 7.3916C11.7195 7.4146 11.749 7.43986 11.7764 7.4668C11.8058 7.49588 11.8326 7.52793 11.8574 7.5625C11.8623 7.56934 11.8674 7.57603 11.8721 7.58301C11.8754 7.58799 11.8796 7.59257 11.8828 7.59766C11.9024 7.6284 11.919 7.66011 11.9336 7.69238C11.9358 7.69718 11.9374 7.70219 11.9395 7.70703C11.9503 7.73252 11.957 7.75903 11.9648 7.78516C11.9718 7.80823 11.9797 7.83087 11.9844 7.85449C11.9894 7.87977 11.9908 7.90521 11.9932 7.93066C11.9953 7.95346 11.998 7.97605 11.998 7.99902C11.998 8.02233 11.9953 8.04523 11.9932 8.06836C11.9909 8.0935 11.9892 8.11858 11.9844 8.14355C11.9796 8.16813 11.9721 8.19183 11.9648 8.21582C11.9573 8.24066 11.9507 8.26577 11.9404 8.29004C11.9378 8.29636 11.9345 8.30234 11.9316 8.30859C11.9173 8.34016 11.9029 8.37224 11.8838 8.40234C11.8797 8.40884 11.8744 8.41457 11.8701 8.4209C11.8671 8.42532 11.8634 8.42923 11.8604 8.43359C11.8357 8.46835 11.8085 8.50002 11.7793 8.5293C11.751 8.55761 11.72 8.5834 11.6865 8.60742C11.6795 8.61245 11.6732 8.61828 11.666 8.62305C11.6614 8.62615 11.6571 8.6298 11.6523 8.63281L6.15332 12.1328C6.12062 12.1536 6.08617 12.1704 6.05176 12.1855C6.04589 12.1881 6.04013 12.1909 6.03418 12.1934C6.00904 12.2037 5.98275 12.2094 5.95703 12.2168C5.93216 12.224 5.9077 12.2327 5.88184 12.2373C5.87634 12.2383 5.87074 12.2384 5.86523 12.2393C5.82758 12.2451 5.78929 12.25 5.75 12.25C5.7461 12.25 5.74217 12.2491 5.73828 12.249C5.73143 12.2489 5.72461 12.2484 5.71777 12.248C5.67397 12.2462 5.63139 12.2405 5.58984 12.2314C5.58019 12.2293 5.57109 12.2252 5.56152 12.2227C5.5237 12.2128 5.48642 12.2028 5.45117 12.1875C5.44023 12.1828 5.43065 12.1752 5.41992 12.1699C5.38768 12.154 5.35559 12.1384 5.32617 12.1182C5.3119 12.1084 5.29978 12.0958 5.28613 12.085C5.26198 12.0658 5.23742 12.0473 5.21582 12.0254C5.18715 11.9962 5.16088 11.9642 5.13672 11.9297C5.13241 11.9235 5.12815 11.9174 5.12402 11.9111C5.122 11.908 5.11918 11.9055 5.11719 11.9023C5.09737 11.8712 5.08111 11.8384 5.06641 11.8057C5.0626 11.7972 5.05818 11.7889 5.05469 11.7803C5.04592 11.7586 5.0408 11.736 5.03418 11.7139C5.02585 11.6859 5.01678 11.6581 5.01172 11.6289C5.01104 11.625 5.01039 11.6211 5.00977 11.6172C5.00376 11.579 5 11.5399 5 11.5V4.5C5 4.08579 5.33579 3.75 5.75 3.75ZM6.5 10.1328L9.85059 8L6.5 5.87402V10.1328Z" fill="black"/>
</svg>
